<mxfile host="app.diagrams.net" modified="2024-11-28T09:00:10.664Z" agent="Mozilla/5.0 (Windows NT 10.0; Win64; x64) AppleWebKit/537.36 (KHTML, like Gecko) Chrome/131.0.0.0 Safari/537.36" etag="Fy_tC4YF3iMXFvhz2bHG" version="24.6.4" type="github">
  <diagram name="Page-1" id="gLkLaWEfZaW2fMQiTlOf">
    <mxGraphModel dx="1369" dy="739" grid="1" gridSize="10" guides="1" tooltips="1" connect="1" arrows="1" fold="1" page="1" pageScale="1" pageWidth="850" pageHeight="1100" math="0" shadow="0">
      <root>
        <mxCell id="0" />
        <mxCell id="1" parent="0" />
        <mxCell id="a0FVi_7sndS5LYLaPX6G-2" value="" style="rounded=0;whiteSpace=wrap;html=1;" vertex="1" parent="1">
          <mxGeometry x="10" y="20" width="510" height="590" as="geometry" />
        </mxCell>
        <mxCell id="a0FVi_7sndS5LYLaPX6G-3" value="" style="rounded=0;whiteSpace=wrap;html=1;" vertex="1" parent="1">
          <mxGeometry x="530" y="20" width="290" height="590" as="geometry" />
        </mxCell>
        <mxCell id="a0FVi_7sndS5LYLaPX6G-4" value="" style="rounded=0;whiteSpace=wrap;html=1;" vertex="1" parent="1">
          <mxGeometry x="540" y="40" width="270" height="160" as="geometry" />
        </mxCell>
        <mxCell id="a0FVi_7sndS5LYLaPX6G-5" value="" style="rounded=0;whiteSpace=wrap;html=1;" vertex="1" parent="1">
          <mxGeometry x="540" y="220" width="270" height="110" as="geometry" />
        </mxCell>
        <mxCell id="a0FVi_7sndS5LYLaPX6G-6" value="" style="rounded=0;whiteSpace=wrap;html=1;" vertex="1" parent="1">
          <mxGeometry x="540" y="370" width="270" height="120" as="geometry" />
        </mxCell>
        <mxCell id="a0FVi_7sndS5LYLaPX6G-7" value="Export" style="rounded=1;whiteSpace=wrap;html=1;" vertex="1" parent="1">
          <mxGeometry x="620" y="550" width="120" height="30" as="geometry" />
        </mxCell>
        <mxCell id="a0FVi_7sndS5LYLaPX6G-8" value="Projection:" style="text;html=1;align=center;verticalAlign=middle;whiteSpace=wrap;rounded=0;" vertex="1" parent="1">
          <mxGeometry x="549" y="44" width="60" height="30" as="geometry" />
        </mxCell>
        <mxCell id="a0FVi_7sndS5LYLaPX6G-9" value="" style="rounded=0;whiteSpace=wrap;html=1;" vertex="1" parent="1">
          <mxGeometry x="570" y="90" width="30" height="20" as="geometry" />
        </mxCell>
        <mxCell id="a0FVi_7sndS5LYLaPX6G-10" value="" style="rounded=0;whiteSpace=wrap;html=1;" vertex="1" parent="1">
          <mxGeometry x="630" y="90" width="30" height="20" as="geometry" />
        </mxCell>
        <mxCell id="a0FVi_7sndS5LYLaPX6G-11" value="" style="rounded=0;whiteSpace=wrap;html=1;" vertex="1" parent="1">
          <mxGeometry x="690" y="90" width="30" height="20" as="geometry" />
        </mxCell>
        <mxCell id="a0FVi_7sndS5LYLaPX6G-12" value="" style="rounded=0;whiteSpace=wrap;html=1;" vertex="1" parent="1">
          <mxGeometry x="750" y="90" width="30" height="20" as="geometry" />
        </mxCell>
        <mxCell id="a0FVi_7sndS5LYLaPX6G-13" value="" style="rounded=0;whiteSpace=wrap;html=1;" vertex="1" parent="1">
          <mxGeometry x="570" y="130" width="30" height="20" as="geometry" />
        </mxCell>
        <mxCell id="a0FVi_7sndS5LYLaPX6G-14" value="" style="rounded=0;whiteSpace=wrap;html=1;" vertex="1" parent="1">
          <mxGeometry x="630" y="130" width="30" height="20" as="geometry" />
        </mxCell>
        <mxCell id="a0FVi_7sndS5LYLaPX6G-15" value="" style="rounded=0;whiteSpace=wrap;html=1;" vertex="1" parent="1">
          <mxGeometry x="690" y="130" width="30" height="20" as="geometry" />
        </mxCell>
        <mxCell id="a0FVi_7sndS5LYLaPX6G-16" value="" style="rounded=0;whiteSpace=wrap;html=1;" vertex="1" parent="1">
          <mxGeometry x="750" y="130" width="30" height="20" as="geometry" />
        </mxCell>
      </root>
    </mxGraphModel>
  </diagram>
</mxfile>
